<svg xmlns="http://www.w3.org/2000/svg" viewBox="0 0 982.4 288.13"><defs><style>.cls-1,.cls-2{fill:#fff;}.cls-1{fill-rule:evenodd;}</style></defs><title>Asset 7</title><g id="Layer_2" data-name="Layer 2"><g id="Layer_1-2" data-name="Layer 1"><path class="cls-1" d="M283.83,288.13c-4.46,0-7.12-3.64-5.92-8.09q4.39-16.44,8.81-32.89c1.19-4.45,5.8-8.09,10.26-8.09h44.67c4.46,0,7.12,3.64,5.93,8.09q-4.41,16.46-8.81,32.89c-1.2,4.45-5.81,8.09-10.27,8.09Zm16.46-37L293.63,276H325.2l6.66-24.85Z"/><path class="cls-1" d="M837.85,288.13c-4.46,0-7.12-3.64-5.93-8.09q4.41-16.44,8.81-32.89c1.2-4.45,5.81-8.09,10.26-8.09h44.68c4.45,0,7.12,3.64,5.92,8.09q-4.4,16.46-8.81,32.89c-1.19,4.45-5.8,8.09-10.26,8.09Zm16.45-37L847.64,276h31.57l6.66-24.85Z"/><path class="cls-1" d="M491.36,288.13c-4.46,0-7.12-3.64-5.93-8.09q4.41-16.44,8.81-32.89c1.19-4.45,5.8-8.09,10.26-8.09h44.67c4.46,0,7.13,3.64,5.93,8.09q-4.41,16.46-8.81,32.89c-1.19,4.45-5.8,8.09-10.26,8.09Zm16.45-37L501.15,276h31.57l6.66-24.85Z"/><path class="cls-1" d="M471.61,270.17a10.85,10.85,0,0,0,9.8-7.75l4.19-15.61c1.14-4.27-1.41-7.75-5.68-7.75H427.51l-3.25,12.11H469L467.16,258c-12.36,0-24.65,0-37,0-4.25,0-8.65,3.49-9.8,7.75-2,7.42-4,15-6,22.42h15.45l4.81-18Z"/><polygon class="cls-1" points="960.94 264.56 958.75 274.6 955.78 288.13 970.45 288.13 981.18 239.06 965.47 239.06 938.44 273.33 929.78 239.06 914.07 239.06 898.5 288.13 913.16 288.13 917.45 274.6 920.64 264.56 921.67 268.53 921.61 268.53 924.28 278.96 924.38 278.96 926.77 288.13 942.18 288.13 949.48 278.96 949.58 278.96 957.84 268.53 957.78 268.53 960.94 264.56"/><path class="cls-1" d="M599.27,288.13h15.56l-5.27-19.69h2.81a10.85,10.85,0,0,0,9.81-7.75l3.72-13.87c1.14-4.27-1.4-7.75-5.67-7.75H567.81l-3.25,12.11h44.72L607.46,258c-12.35,0-24.69.13-37,.17a10.89,10.89,0,0,0-9.8,7.76q-3,11.12-6,22.24h15.45l5.25-19.57c6.18,0,12.35,0,18.51-.05Z"/><polygon class="cls-1" points="196.72 288.13 182.07 288.13 162.99 260.29 155.53 288.13 140.88 288.13 154.03 239.06 168.68 239.06 187.76 266.91 195.22 239.06 209.87 239.06 196.72 288.13"/><polygon class="cls-1" points="68.82 239.06 53.12 239.06 47.92 245.65 46.25 239.06 30.54 239.06 36.12 260.61 26.09 273.33 17.43 239.06 1.71 239.06 14.41 288.13 29.83 288.13 39.95 275.39 43.24 288.13 58.66 288.13 97.65 239.06 81.95 239.06 54.92 273.33 51.7 260.61 68.82 239.06"/><path class="cls-1" d="M407.23,257c4.26,0,6.8,3.49,5.66,7.75l-4.19,15.62a10.86,10.86,0,0,1-9.82,7.75H318.62L321.86,276h72.56l1.82-6.79c-12.36,0-24.67,0-37,0-4.24,0-6.78-3.5-5.64-7.76q2-7.41,4-14.84a10.61,10.61,0,0,1,9.6-7.57h50.68l-3.25,12.11h-42.8L370.25,257Z"/><path class="cls-1" d="M749.84,257c4.27,0,6.8,3.48,5.66,7.75l-4.19,15.61a10.85,10.85,0,0,1-9.82,7.75H655.37L658.61,276H737l1.82-6.79c-12.36,0-24.67,0-37,0-4.25,0-6.79-3.49-5.65-7.75q2-7.43,4-14.84a10.63,10.63,0,0,1,9.61-7.58h50.67l-3.24,12.11h-42.8L712.86,257Z"/><polygon class="cls-1" points="692.9 239.06 689.66 251.17 669.19 251.17 659.28 288.13 644.64 288.13 654.54 251.17 634.1 251.17 637.34 239.06 657.79 239.06 672.43 239.06 692.9 239.06"/><path class="cls-1" d="M791.62,251.17C790,257.3,788,264.71,785,276h41.19l-3.25,12.11H774.83c-4.28,0-6.82-3.48-5.68-7.75l9-33.57a10.87,10.87,0,0,1,9.83-7.75h48.08l-3.25,12.11Z"/><path class="cls-1" d="M259.27,288.13a10.85,10.85,0,0,0,9.81-7.75c1.24-4.62,1.18-4.41,2.42-9,1.14-4.26-1.4-7.74-5.65-7.75a10.84,10.84,0,0,0,9.8-7.75c1.24-4.62,1.19-4.41,2.43-9,1.14-4.27-1.41-7.75-5.68-7.75H220l-2,7.43-1.25,4.68-4,14.92-2.58,9.63-2.58,9.64,0,.1-.06.25,0,.05,0,.08,0,.1,0,.11h0l0,.14-.05.16v0l0,.13,0,.2h0l-.06.22,0,.13,0,.12-.06.22v.06l-.08.29h0l-.09.34h52.43Zm-27.08-37h29.27l-1.92,7.17H230.27l1.92-7.16Zm-4.73,17.67h29.26l-2.33,8.69c-9.77,0-19.53.08-29.3.14l.52-1.95,1.85-6.88Zm-20,16.87v-.08h0v.07h0v0l0,.06,0,.07,0,.08,0,.07v0l0,.09,0,.1,0,.1v0l0,.07,0,.1,0,.12v.05l0,.05,0,.11,0,.12,0,.07v0l0,.11,0,.1,0,.1h0l0,.09,0,.09,0,.08v.18l0,0v0h0v-.07l0-.05v-.08l0-.1,0-.11,0-.11v0l0-.16.05-.15v0l.06-.2,0-.12,0-.11.06-.23v0l.07-.28v-.05l.07-.26Z"/><path class="cls-1" d="M135.85,288.13H120.14l-2-7.93H90.7l-6.25,7.93H68.74l39-49.07h15.41l12.71,49.07ZM115.5,269.77l-4-15.91L98.92,269.77Z"/><polygon class="cls-1" points="756.06 280.06 765.82 280.06 763.66 288.13 753.9 288.13 756.06 280.06"/><path class="cls-2" d="M64.85,32.81H27.77L32.53,6H233.6L216.92,32.81h-116L88.44,67.13H219L198.92,180.25l-41.31,27.58-42,.11,4.76-26.81,41.64-.22,15.4-86.74H79.89L39,207.83l-39,.11Z"/><path class="cls-2" d="M273.49,37.89H287L293.32,2h33.32l-6.36,35.87H335.4L319.88,64.37h-4.3L291.65,199.23,256.2,211.14,282.25,64.37H268.79Zm91.87,134a15.73,15.73,0,0,1,5,15.12,22.52,22.52,0,0,1-4.2,9.38,23.61,23.61,0,0,1-8,6.73,19.9,19.9,0,0,1-9.7,2.43,16.2,16.2,0,0,1-8.89-2.49,13.84,13.84,0,0,1-5.6-6.67,17.13,17.13,0,0,1-.83-9.33,21,21,0,0,1,4.16-9.43,27.05,27.05,0,0,1,6.31-5.74H308.2l3.78-21.3h99.21l1.08-6.07h35.2l-1.08,6.07h9.93l-10.4,21.3h-3.31l-2.82,14.68-32,20.85-20.94-.11,3.64-20.52,14.27-.22,2.61-14.68ZM340.2,12.07h51.21l1.86-10.49h34.54L426,12.07,438.33,12,435.9,5.11h31.56l2.41,7h12.25L469.75,33.25H422.19l-2,11.37H471L455.57,131.8,420.27,143l5.51-30.46-11.86,16.44-8.69-.11-1.3,8-36.36,9.6,3.11-17.55h-17.1L352,137.76l-34.88,9.38,18.2-102.52h50.32l2-11.37H336.44Zm34.17,96,1.95-11h-17.1l-2,11ZM380,76.18l1.74-9.82H364.66l-1.74,9.82Zm51.43,4.31L421,97.26h-10L409,108.07h17.43Zm-16.89-4.31,17.5.22,1.79-10H416.31Z"/><path class="cls-2" d="M548.37,3h36.31L569.34,32.81,540.89,193.16l-37.6,15.34L526.68,76.73H511.45Zm148,46.46-1.39,149H665.31l.18-149H661l-21.19,119.4h22.62L648.54,194.7H635.19l-.4,2.21-36.08,14.9,3-17.11H582.22l4.58-25.82h19.53l21.19-119.4h-3.75l-50.61,149H543.48l48.62-149H573.34l4.78-26.93H632.3L635.77,3h33.44l-3.47,19.53H727L712.83,49.48Z"/><path class="cls-2" d="M769.53,83H959.67l-17.56,96.45L905,208.17l-74.23-.23,4-22.51h69.86l14.37-81H802.7l-2.47,13.91H913.12L899,138.64H796.63L794.08,153H907l-14.2,21H790.36l-3.52,19.86-39.78,16.44ZM928.88,50.69l-2.35-12.25H961l5.19,35.42H932.6L930.33,59.3l-9.75,14.56H774.91l4.22-23.17,13.12-15.45H773.71l3.88-21.85h77.69A67.47,67.47,0,0,1,864,4.29Q869.31-.41,877.78,0a42,42,0,0,1,13.57,2.54c3.39,1.39,5.52,3.16,6.4,5.29l2.66,5.52h82L967.71,35.24H834.18L821,50.69Z"/></g></g></svg>