<svg xmlns="http://www.w3.org/2000/svg" viewBox="0 0 449.69 127.7"><defs><style>.cls-1{fill:#fff;}</style></defs><title>Asset 1</title><g id="Layer_2" data-name="Layer 2"><g id="Layer_1-2" data-name="Layer 1"><path class="cls-1" d="M12.06,0H112.24l-1.42,8H51.12L44.27,31.28h57L91.5,86.44A11.11,11.11,0,0,1,90,90.35a14.27,14.27,0,0,1-2.67,3.17,12.38,12.38,0,0,1-3.56,2.16,10.92,10.92,0,0,1-4.1.8H48l1.42-8H63.15a3.72,3.72,0,0,0,3.48-3l8.14-46.18H41.91L25.15,96.58H0L26,8H10.65Z"/><path class="cls-1" d="M124.76,19.3h8.53L136.7,0h17.77l-3.4,19.3h8.53L158.24,27H149.7L137.44,96.58H119.67L131.93,27H123.4ZM162.1,9.14h22.14L185.85,0H202.2l-1.61,9.14h22l-1.37,7.72h-22L198.31,22h21.43l-6.86,38.89H197.14l1-5.38H192.4l-.94,5.38H175.1l1-5.38h-5.58l-.95,5.38h-16L160.43,22H182l.92-5.18H160.74Zm-9.56,57.07H189l.54-3H209l-.54,3h4.06l-1.36,7.72h-4.06l-2.29,13A11.7,11.7,0,0,1,201,93.79a10.26,10.26,0,0,1-7,2.79H176l1.36-7.72h4.88a3.15,3.15,0,0,0,2.07-.81,3.5,3.5,0,0,0,1.19-2.13l2.11-12H151.18ZM173.19,77l1.48,12.9H157.41L155.82,77Zm.95-42.25h5.58l.88-5H175Zm-2.31,13.1h5.58l1-5.38h-5.58ZM197,29.76l-.87,5h5.68l.88-5Zm-3.18,18.07h5.68l1-5.38h-5.69ZM220.49.51l1.31,6.4H205.86L204.65.51Z"/><path class="cls-1" d="M270.54,0,261.6,24.12h3.16L252,96.48H231.54l9-51.09h-7.33L249.88,0Zm45,0-2,11.09h22.09l-1.37,7.74h-5.59l-7.78,75.82H306.06L307,86.1h-6.61l-1.85,10.48H277l1.85-10.48h-6.51l-2.12,8.55H255.37l18.77-75.82h-5.4l1.37-7.74h22L294,0Zm-41.3,78.36h6l10.49-59.53H289.1Zm27.48,0h6l6.13-59.53H312.2Z"/><path class="cls-1" d="M414.41,0l-1.2,6.78h36.48l-1.38,7.81h-55L381.89,28.25h32.26a1.92,1.92,0,0,0,1.93-1,1.67,1.67,0,0,0,.16-2.06l-3.76-6.68h25.59l3.77,6.58c1.26,2.19,1.07,4.59-.55,7.19a8,8,0,0,1-6.84,3.8H349.74l18.07-21.47H350.86l1.38-7.81h36.52L390,0ZM402.76,88.77a3.61,3.61,0,0,0,3.39-2.88l.94-5.34H368.77l-2.83,16H341.59l9.82-55.69h87L430.34,86.8a11.23,11.23,0,0,1-1.45,3.86,12.18,12.18,0,0,1-2.65,3.09,13.17,13.17,0,0,1-3.5,2.06,10.53,10.53,0,0,1-3.89.77H393.17l1.37-7.81ZM374.38,48.7,373,56.51h38.32l1.38-7.81Zm-4.24,24h38.33L410,64.32H371.63Z"/><path class="cls-1" d="M1.7,127.68l.42-16.22H5.86l-.28,11.27,4-11H13l.05,11.09,3.74-11.37h3.74l-5.32,16.22H10L10,119.12l-3.08,8.56Z"/><path class="cls-1" d="M56.28,111.4l2.81,16.23H55l-.77-5.28H49.55L47,127.63H42.88l8.55-16.23Zm-6.07,9.65h3.88l-.88-6.1Z"/><path class="cls-1" d="M92.21,111.48,95.34,122l1.86-10.53h4l-2.86,16.2H93.58L90.32,117l-1.88,10.64h-4l2.87-16.22h4v0Z"/><path class="cls-1" d="M141.22,111.4,140.4,116a4.18,4.18,0,0,1-.53,1.46,4.77,4.77,0,0,1-.94,1.14h1l-1,5.82a3.58,3.58,0,0,1-.48,1.26,4.42,4.42,0,0,1-.88,1,4.13,4.13,0,0,1-1.16.7,3.5,3.5,0,0,1-1.3.26H124.17L127,111.4Zm-7.46,7.22a2.16,2.16,0,0,0,1-.25,3.11,3.11,0,0,0,.77-.56,2.94,2.94,0,0,0,.52-.71,2.56,2.56,0,0,0,.27-.74l.64-3.64h-6.06l-1,5.9Zm-.86,7.78a1.65,1.65,0,0,0,.66-.13,2,2,0,0,0,.58-.34,2.21,2.21,0,0,0,.44-.52,2.08,2.08,0,0,0,.23-.63l.85-4.84H129.6l-1.14,6.46Z"/><path class="cls-1" d="M179.18,124.33a3.75,3.75,0,0,1-.48,1.28,4.24,4.24,0,0,1-2,1.73,3.49,3.49,0,0,1-1.3.25H164.2l2.29-13a3.76,3.76,0,0,1,.48-1.25,4.22,4.22,0,0,1,.88-1,4,4,0,0,1,1.15-.71,3.48,3.48,0,0,1,1.31-.26h11.16Zm-6,2a1.83,1.83,0,0,0,1.23-.47,1.85,1.85,0,0,0,.67-1.15l2.12-12h-4.67a1.64,1.64,0,0,0-.65.13,1.91,1.91,0,0,0-.58.35,2,2,0,0,0-.44.51,1.87,1.87,0,0,0-.24.63l-2.12,12Z"/><path class="cls-1" d="M249.2,112.71h-8.68a1.85,1.85,0,0,0-1.24.47,1.9,1.9,0,0,0-.67,1.15l-.76,4.29h10.31l-1,5.78a3.63,3.63,0,0,1-.48,1.27,4.84,4.84,0,0,1-.88,1,4.16,4.16,0,0,1-1.16.71,3.49,3.49,0,0,1-1.3.25H232.19l.23-1.3h8.67a2,2,0,0,0,1.92-1.62l.85-4.8H233.55l.94-5.29a3.53,3.53,0,0,1,.48-1.26,4.19,4.19,0,0,1,.88-1,4,4,0,0,1,1.15-.7,3.39,3.39,0,0,1,1.33-.26h11.1Z"/><path class="cls-1" d="M276.16,127.65H272.1L275,111.39h14.39l-1.15,6.5a3.56,3.56,0,0,1-.48,1.27,4.61,4.61,0,0,1-.88,1,4,4,0,0,1-1.16.7,3.49,3.49,0,0,1-1.3.25h-7.08Zm1.38-7.8h4.65a1.81,1.81,0,0,0,1.24-.48,1.93,1.93,0,0,0,.67-1.15l1-5.51H278.8Z"/><path class="cls-1" d="M326.72,124.33a3.56,3.56,0,0,1-.48,1.28,4.14,4.14,0,0,1-.88,1,4.32,4.32,0,0,1-1.15.7,3.54,3.54,0,0,1-1.31.25H311.74l2.29-13a3.58,3.58,0,0,1,.49-1.25,4.23,4.23,0,0,1,2-1.75,3.53,3.53,0,0,1,1.32-.26H329Zm-6,2a1.83,1.83,0,0,0,1.23-.47,1.91,1.91,0,0,0,.68-1.15l2.12-12h-4.68a1.64,1.64,0,0,0-.65.13,2,2,0,0,0-.58.35,2.16,2.16,0,0,0-.44.51,2.08,2.08,0,0,0-.23.63l-2.12,12Z"/><path class="cls-1" d="M356,127.65H352l2.86-16.26h14.39l-.92,5.2a3.44,3.44,0,0,1-.4,1.14,4.65,4.65,0,0,1-.73,1,4.31,4.31,0,0,1-1,.71,3.79,3.79,0,0,1-1.13.39l1.51,7.85h-4.39l-1.49-7.8h-3.28Zm1.61-9.11h4.65a1.85,1.85,0,0,0,.66-.13,2,2,0,0,0,.58-.35,2.08,2.08,0,0,0,.43-.51,1.84,1.84,0,0,0,.24-.64l.74-4.2h-6.27Z"/><path class="cls-1" d="M407.66,112.71h-4.6l-2.64,15h-4.09l2.64-15h-4.58l.23-1.32h13.27Z"/><path class="cls-1" d="M446.94,112.71h-8.69a1.83,1.83,0,0,0-1.23.47,1.91,1.91,0,0,0-.68,1.15l-.75,4.29h10.3l-1,5.78a3.63,3.63,0,0,1-.48,1.27,4.33,4.33,0,0,1-.88,1,4.1,4.1,0,0,1-1.15.71,3.54,3.54,0,0,1-1.31.25H429.93l.23-1.3h8.66a1.89,1.89,0,0,0,1.25-.47,1.91,1.91,0,0,0,.68-1.15l.85-4.8H431.29l.93-5.29a3.73,3.73,0,0,1,.48-1.26,4.67,4.67,0,0,1,.88-1,4,4,0,0,1,1.16-.7,3.38,3.38,0,0,1,1.32-.26h11.11Z"/></g></g></svg>